<?xml version="1.0" encoding="UTF-8" standalone="no"?>
<svg
   xmlns:dc="http://purl.org/dc/elements/1.1/"
   xmlns:cc="http://creativecommons.org/ns#"
   xmlns:rdf="http://www.w3.org/1999/02/22-rdf-syntax-ns#"
   xmlns:svg="http://www.w3.org/2000/svg"
   xmlns="http://www.w3.org/2000/svg"
   xmlns:sodipodi="http://sodipodi.sourceforge.net/DTD/sodipodi-0.dtd"
   xmlns:inkscape="http://www.inkscape.org/namespaces/inkscape"
   version="1.1"
   id="svg833"
   width="29.7463"
   height="35.000004"
   viewBox="0 0 29.7463 35.000004"
   sodipodi:docname="download.svg"
   inkscape:version="1.0.1 (3bc2e813f5, 2020-09-07)">
  <metadata
     id="metadata839">
    <rdf:RDF>
      <cc:Work
         rdf:about="">
        <dc:format>image/svg+xml</dc:format>
        <dc:type
           rdf:resource="http://purl.org/dc/dcmitype/StillImage" />
        <dc:title></dc:title>
      </cc:Work>
    </rdf:RDF>
  </metadata>
  <defs
     id="defs837" />
  <sodipodi:namedview
     pagecolor="#ffffff"
     bordercolor="#666666"
     borderopacity="1"
     objecttolerance="10"
     gridtolerance="10"
     guidetolerance="10"
     inkscape:pageopacity="0"
     inkscape:pageshadow="2"
     inkscape:window-width="1920"
     inkscape:window-height="1017"
     id="namedview835"
     showgrid="false"
     inkscape:zoom="1.1885718"
     inkscape:cx="-22.407694"
     inkscape:cy="152.15174"
     inkscape:window-x="-8"
     inkscape:window-y="-8"
     inkscape:window-maximized="1"
     inkscape:current-layer="g841" />
  <g
     inkscape:groupmode="layer"
     inkscape:label="Image"
     id="g841"
     transform="translate(-140.58525,-37.277113)">
    <path
       style="fill:#ffffff;stroke-width:0.160747"
       d="m 150.39349,71.714652 v -0.562464 h 5.06491 5.06491 v 0.562464 0.562464 h -5.06491 -5.06491 z m 0.10947,-1.952951 c -0.0602,-0.06018 -0.10947,-0.351502 -0.10947,-0.647385 v -0.537969 l 5.02471,0.04246 5.02471,0.04247 v 0.562464 0.562464 l -4.91523,0.04246 c -2.70338,0.02335 -4.9645,-0.0068 -5.02472,-0.06696 z m -0.10947,-3.028871 v -0.562464 h 5.06995 5.06994 l -0.0379,0.562464 -0.0379,0.562464 h -5.03204 -5.03205 z m 0.10947,-1.952951 c -0.0602,-0.06018 -0.10947,-0.350472 -0.10947,-0.645097 v -0.535679 h 5.07462 5.07461 l -0.0499,0.60264 -0.0499,0.60264 -4.91523,0.04246 c -2.70338,0.02335 -4.9645,-0.0068 -5.02472,-0.06696 z m -0.10947,-3.671687 v -1.205279 h 5.06491 5.06491 v 1.205279 1.20528 h -5.06491 -5.06491 z m 0.10947,-2.595767 c -0.0602,-0.06018 -0.10947,-1.182114 -0.10947,-2.493191 v -2.383775 h -4.90412 c -2.69727,0 -4.90412,-0.03839 -4.90412,-0.08532 0,-0.07408 3.90152,-4.37104 12.51338,-13.781687 1.27711,-1.395557 2.3728,-2.516467 2.43488,-2.490911 0.15145,0.06235 14.79804,16.171905 14.79804,16.276139 0,0.04498 -2.20497,0.08178 -4.89993,0.08178 h -4.89993 l -0.0444,2.450735 -0.0444,2.450735 -4.91523,0.04246 c -2.70338,0.02335 -4.9645,-0.0068 -5.02472,-0.06696 z"
       id="path845" />
  </g>
</svg>
