<?xml version="1.0" encoding="UTF-8" standalone="no"?>
<svg
   xmlns:dc="http://purl.org/dc/elements/1.1/"
   xmlns:cc="http://creativecommons.org/ns#"
   xmlns:rdf="http://www.w3.org/1999/02/22-rdf-syntax-ns#"
   xmlns:svg="http://www.w3.org/2000/svg"
   xmlns="http://www.w3.org/2000/svg"
   xmlns:sodipodi="http://sodipodi.sourceforge.net/DTD/sodipodi-0.dtd"
   xmlns:inkscape="http://www.inkscape.org/namespaces/inkscape"
   version="1.1"
   id="Layer_1"
   x="0px"
   y="0px"
   viewBox="0 0 45.833317 25"
   xml:space="preserve"
   sodipodi:docname="back-to-top-icon--black.svg"
   width="45.833317"
   height="25"
   inkscape:version="1.0.1 (3bc2e813f5, 2020-09-07)"><metadata
   id="metadata38"><rdf:RDF><cc:Work
       rdf:about=""><dc:format>image/svg+xml</dc:format><dc:type
         rdf:resource="http://purl.org/dc/dcmitype/StillImage" /><dc:title></dc:title></cc:Work></rdf:RDF></metadata><defs
   id="defs36" /><sodipodi:namedview
   pagecolor="#ffffff"
   bordercolor="#666666"
   borderopacity="1"
   objecttolerance="10"
   gridtolerance="10"
   guidetolerance="10"
   inkscape:pageopacity="0"
   inkscape:pageshadow="2"
   inkscape:window-width="1920"
   inkscape:window-height="1017"
   id="namedview34"
   showgrid="false"
   inkscape:zoom="1"
   inkscape:cx="95.991535"
   inkscape:cy="49.708682"
   inkscape:window-x="-8"
   inkscape:window-y="-8"
   inkscape:window-maximized="1"
   inkscape:current-layer="Layer_1"
   inkscape:document-rotation="0" />
<path
   id="XMLID_224_"
   d="M 45.223093,21.443457 24.389219,0.61013846 C 23.998664,0.21944429 23.468664,0 22.916165,0 22.363526,0 21.833665,0.21958318 21.442971,0.61027735 L 0.6102079,21.443596 c -0.81361053,0.813611 -0.81361053,2.132637 0,2.946248 0.8134717,0.813472 2.1326374,0.813611 2.9462479,0 L 22.916165,5.0297187 42.276846,24.389844 c 0.406805,0.406805 0.939999,0.610138 1.473193,0.610138 0.533194,0 1.066388,-0.203333 1.473193,-0.610277 0.813472,-0.81361 0.813472,-2.132638 -1.39e-4,-2.946248 z"
   style="fill:#000000;stroke-width:0.138889" />
<g
   id="g3"
   transform="matrix(0.13888879,0,0,0.13888879,6.9439812e-5,-10.416659)"
   style="fill:#ffffff">
</g>
<g
   id="g5"
   transform="matrix(0.13888879,0,0,0.13888879,6.9439812e-5,-10.416659)"
   style="fill:#ffffff">
</g>
<g
   id="g7"
   transform="matrix(0.13888879,0,0,0.13888879,6.9439812e-5,-10.416659)"
   style="fill:#ffffff">
</g>
<g
   id="g9"
   transform="matrix(0.13888879,0,0,0.13888879,6.9439812e-5,-10.416659)"
   style="fill:#ffffff">
</g>
<g
   id="g11"
   transform="matrix(0.13888879,0,0,0.13888879,6.9439812e-5,-10.416659)"
   style="fill:#ffffff">
</g>
<g
   id="g13"
   transform="matrix(0.13888879,0,0,0.13888879,6.9439812e-5,-10.416659)"
   style="fill:#ffffff">
</g>
<g
   id="g15"
   transform="matrix(0.13888879,0,0,0.13888879,6.9439812e-5,-10.416659)"
   style="fill:#ffffff">
</g>
<g
   id="g17"
   transform="matrix(0.13888879,0,0,0.13888879,6.9439812e-5,-10.416659)"
   style="fill:#ffffff">
</g>
<g
   id="g19"
   transform="matrix(0.13888879,0,0,0.13888879,6.9439812e-5,-10.416659)"
   style="fill:#ffffff">
</g>
<g
   id="g21"
   transform="matrix(0.13888879,0,0,0.13888879,6.9439812e-5,-10.416659)"
   style="fill:#ffffff">
</g>
<g
   id="g23"
   transform="matrix(0.13888879,0,0,0.13888879,6.9439812e-5,-10.416659)"
   style="fill:#ffffff">
</g>
<g
   id="g25"
   transform="matrix(0.13888879,0,0,0.13888879,6.9439812e-5,-10.416659)"
   style="fill:#ffffff">
</g>
<g
   id="g27"
   transform="matrix(0.13888879,0,0,0.13888879,6.9439812e-5,-10.416659)"
   style="fill:#ffffff">
</g>
<g
   id="g29"
   transform="matrix(0.13888879,0,0,0.13888879,6.9439812e-5,-10.416659)"
   style="fill:#ffffff">
</g>
<g
   id="g31"
   transform="matrix(0.13888879,0,0,0.13888879,6.9439812e-5,-10.416659)"
   style="fill:#ffffff">
</g>
</svg>
